<?xml version="1.0" encoding="UTF-8"?>
<svg id="Layer_2" data-name="Layer 2" xmlns="http://www.w3.org/2000/svg" xmlns:xlink="http://www.w3.org/1999/xlink" viewBox="0 0 84.1 84.2">
  <defs>
    <linearGradient id="linear-gradient" x1="-1.2" y1="41.7" x2="38.3" y2="41.7" gradientTransform="translate(3.2 -1.3) rotate(1.9)" gradientUnits="userSpaceOnUse">
      <stop offset=".2" stop-color="#fff"/>
      <stop offset=".6" stop-color="#6ab2e8"/>
    </linearGradient>
    <linearGradient id="linear-gradient-2" x1="44.5" y1="42.7" x2="84" y2="42.7" gradientTransform="translate(127.1 86.4) rotate(-179)" xlink:href="#linear-gradient"/>
    <linearGradient id="linear-gradient-3" x1="34.8" y1="66" x2="74.2" y2="66" gradientTransform="translate(-19.6 122.3) rotate(-93.6)" xlink:href="#linear-gradient"/>
    <linearGradient id="linear-gradient-4" x1="37.7" y1="7.1" x2="77.2" y2="7.1" gradientTransform="translate(49.3 -37) rotate(90)" xlink:href="#linear-gradient"/>
  </defs>
  <g id="Layer_2-2" data-name="Layer 2">
    <path d="m.7,40.2s22.5-19.3,39.5,1.3c0,0-25.7,19.8-39.5-1.3Z" fill="url(#linear-gradient)" stroke="#6ab2e8" stroke-miterlimit="10"/>
    <path d="m83.4,43.1s-22.2,19.6-39.5-.7c0,0,25.4-20.2,39.5.7Z" fill="url(#linear-gradient-2)" stroke="#6ab2e8" stroke-miterlimit="10"/>
    <path d="m43.9,83.5s-21.3-20.5-2.5-39.4c0,0,22.2,23.7,2.5,39.4Z" fill="url(#linear-gradient-3)" stroke="#6ab2e8" stroke-miterlimit="10"/>
    <path d="m42.4.7s20,21.8,0,39.5c0,0-20.6-25.1,0-39.5Z" fill="url(#linear-gradient-4)" stroke="#6ab2e8" stroke-miterlimit="10"/>
  </g>
</svg>